<?xml version="1.0" encoding="UTF-8"?>
<svg id="Livello_1" xmlns="http://www.w3.org/2000/svg" version="1.1" viewBox="0 0 507.62 128.3">
  <!-- Generator: Adobe Illustrator 29.1.0, SVG Export Plug-In . SVG Version: 2.1.0 Build 142)  -->
  <defs>
    <style>
      .st0 {
        font-family: Futura-Bold, Futura;
        font-size: 68.45px;
        font-weight: 700;
      }

      .st0, .st1, .st2 {
        fill: #203768;
      }

      .st0, .st3, .st2 {
        isolation: isolate;
      }

      .st4 {
        fill: #f29479;
      }

      .st2 {
        font-family: Poppins-Regular, Poppins;
        font-size: 29.69px;
      }
    </style>
  </defs>
  <path class="st1" d="M45.39,40.62c-7.52-17.61.7-39.85,21.6-38.29,5.35.5,10.71,2.81,13.79,7.4,1.14,1.59,2.31,4.03,3.98,4.68,2.24.87,5.28-1.1,7.63-1.66,15.95-3.76,29.68,14.4,22.15,29.14-3.1,7.1-9.52,11.76-15.71,16.03-9.88,6.76-19.31,13.13-29.93,18.66-3.82,1.91-6.82,1.46-8.72-2.62-3.76-7.05-7.52-16.36-10.6-22.88"/>
  <path class="st1" d="M66.33,97.04c-6.77,18.14-28.28,28.71-42.51,13.01-3.57-4.1-5.89-9.52-4.94-15.03.27-1.96,1.11-4.56.34-6.2-1.04-2.2-4.63-2.88-6.75-4.1C-1.84,76.36.75,53.49,16.54,47.93c7.22-3.04,15.17-1.98,22.68-.8,11.95,1.93,23.3,3.84,34.94,7.18,4.13,1.26,6.01,3.69,4.56,7.99-2.15,7.79-5.89,17.22-8.18,24.15"/>
  <path class="st1" d="M66.97,98.82c2.14,19.23,20.4,34.7,38.01,22.95,4.46-3.1,8.02-7.79,8.45-13.36.21-1.96.03-4.69,1.18-6.09,1.54-1.88,5.19-1.66,7.54-2.33,15.9-4.61,18.96-27.4,5.02-36.63-6.25-4.7-14.21-5.61-21.78-6.3-12.04-1.04-23.51-1.96-35.59-1.55-4.31.21-6.72,2.11-6.37,6.63.19,8.07,1.51,18.12,2.04,25.39"/>
  <circle class="st4" cx="70.97" cy="65.48" r="12.18"/>
  <g class="st3">
    <text class="st0" transform="translate(174.01 65.48)"><tspan x="0" y="0">tre petali</tspan></text>
  </g>
  <g class="st3">
    <text class="st2" transform="translate(174.61 109.19)"><tspan x="0" y="0">COOPERATIVA SOCIALE</tspan></text>
  </g>
</svg>